<?xml version="1.0" standalone="no"?>
<!DOCTYPE svg PUBLIC "-//W3C//DTD SVG 20010904//EN"
 "http://www.w3.org/TR/2001/REC-SVG-20010904/DTD/svg10.dtd">
<svg version="1.0" xmlns="http://www.w3.org/2000/svg"
 width="800.000000pt" height="800.000000pt" viewBox="0 0 800.000000 800.000000"
 preserveAspectRatio="xMidYMid meet">
<metadata>
Created by potrace 1.11, written by Peter Selinger 2001-2013
</metadata>
<g transform="translate(0.000000,800.000000) scale(0.100000,-0.100000)"
fill="#000000" stroke="none">
<path d="M670 7018 c-192 -23 -371 -123 -493 -273 -41 -51 -100 -145 -103
-164 0 -3 -6 -19 -13 -36 -23 -53 -47 -148 -51 -200 -7 -96 -4 -4660 4 -4725
34 -300 268 -560 574 -638 66 -17 238 -18 3193 -16 l3124 2 68 20 c38 12 75
26 83 33 8 6 14 9 14 5 0 -3 18 5 40 19 22 14 40 22 40 18 0 -5 4 -3 8 3 4 6
25 23 47 37 54 37 151 133 177 176 12 20 25 38 28 41 21 18 86 183 96 245 2
11 5 32 8 48 3 15 10 53 16 85 5 31 12 73 16 92 3 19 8 44 10 55 1 11 5 31 8
45 3 13 8 42 11 65 3 22 8 47 10 55 2 8 6 31 9 50 7 41 12 68 32 175 8 44 17
94 19 110 3 17 19 106 35 199 17 93 33 185 36 204 2 19 6 38 9 42 3 5 7 26 10
47 2 21 7 52 10 68 5 26 34 190 50 280 6 36 12 70 21 108 3 16 7 38 9 50 4 31
22 135 29 172 2 11 6 36 10 55 3 19 8 46 11 60 3 14 8 45 11 70 3 25 8 47 9
50 3 5 13 61 21 115 1 11 3 20 4 20 1 0 3 9 4 20 2 11 7 40 11 65 5 25 9 52
10 60 1 8 4 29 8 45 4 17 9 46 13 65 3 19 11 68 19 109 18 103 10 269 -15 337
-5 12 -6 25 -3 28 4 3 1 6 -5 6 -7 0 -12 7 -12 16 0 21 -62 144 -72 144 -4 0
-8 7 -8 15 0 23 -178 196 -225 220 -22 11 -51 27 -65 36 -21 14 -110 47 -145
55 -53 12 -102 17 -167 18 -49 1 -74 5 -69 11 9 12 6 416 -3 493 -18 150 -121
340 -240 441 -15 14 -33 30 -40 36 -21 20 -111 74 -161 96 -47 22 -56 25 -87
32 -7 1 -17 5 -23 9 -32 19 -222 22 -1653 23 l-1572 1 -380 379 -379 380 -968
0 c-532 0 -993 -3 -1023 -7z m732 -2560 c-8 -8 -9 -4 -5 13 4 13 8 18 11 10 2
-7 -1 -18 -6 -23z m-5 -67 c0 -11 -5 -18 -9 -15 -4 3 -5 11 -1 19 7 21 12 19
10 -4z m-214 -1146 c-3 -9 -8 -14 -10 -11 -3 3 -2 9 2 15 9 16 15 13 8 -4z"/>
</g>
</svg>
