<svg id="svg" version="1.1" xmlns="http://www.w3.org/2000/svg" xmlns:xlink="http://www.w3.org/1999/xlink" width="400" height="303.40909090909093" viewBox="0, 0, 400,303.40909090909093"><g id="svgg"><path id="path0" d="M33.636 0.475 C 15.903 2.758,2.281 16.736,0.467 34.513 C 0.134 37.785,0.131 265.811,0.464 269.124 C 2.327 287.606,17.410 302.207,35.803 303.333 L 38.131 303.475 38.268 302.817 C 38.344 302.455,45.671 262.170,54.550 213.295 C 63.430 164.420,70.951 123.465,71.263 122.284 C 74.722 109.212,85.823 98.927,100.050 95.612 L 102.159 95.121 231.193 95.059 L 360.227 94.996 360.227 83.657 C 360.227 70.742,360.106 69.448,358.408 64.230 C 354.247 51.440,343.672 41.959,330.059 38.816 L 327.841 38.304 249.429 38.241 L 171.017 38.177 152.043 19.202 L 133.069 0.227 84.091 0.256 C 57.154 0.272,34.449 0.370,33.636 0.475 " stroke="none" fill="#fca304" fill-rule="evenodd"></path><path id="path1" d="M104.478 95.247 C 89.473 96.486,76.313 106.873,71.820 121.023 C 71.178 123.046,38.253 302.874,38.482 303.104 C 38.681 303.302,343.217 303.165,344.406 302.965 C 355.981 301.024,366.476 293.454,371.728 283.261 C 372.974 280.841,374.577 276.724,374.855 275.227 C 374.913 274.915,375.117 273.892,375.309 272.955 C 375.500 272.017,376.025 269.153,376.474 266.591 C 376.924 264.028,377.436 261.165,377.612 260.227 C 377.788 259.290,378.200 256.989,378.526 255.114 C 378.853 253.239,379.360 250.375,379.653 248.750 C 379.946 247.125,380.458 244.261,380.791 242.386 C 381.125 240.511,381.636 237.648,381.928 236.023 C 382.219 234.398,382.731 231.534,383.064 229.659 C 383.398 227.784,383.909 224.920,384.201 223.295 C 384.492 221.670,385.003 218.807,385.337 216.932 C 385.670 215.057,386.182 212.193,386.473 210.568 C 386.765 208.943,387.276 206.080,387.610 204.205 C 387.943 202.330,388.455 199.466,388.746 197.841 C 389.038 196.216,389.549 193.352,389.882 191.477 C 390.216 189.602,390.727 186.739,391.019 185.114 C 391.310 183.489,391.822 180.625,392.155 178.750 C 392.489 176.875,393.000 174.011,393.291 172.386 C 393.583 170.761,394.094 167.898,394.428 166.023 C 394.761 164.148,395.273 161.284,395.564 159.659 C 395.856 158.034,396.367 155.170,396.701 153.295 C 397.034 151.420,397.547 148.557,397.841 146.932 C 398.135 145.307,398.589 142.750,398.849 141.250 C 399.110 139.750,399.381 138.216,399.451 137.841 C 400.302 133.313,399.795 126.139,398.294 121.477 C 397.690 119.600,397.656 119.511,396.816 117.621 C 396.540 117.000,396.229 116.266,396.124 115.990 C 396.019 115.715,395.340 114.551,394.614 113.404 C 393.889 112.257,393.192 111.141,393.065 110.923 C 391.821 108.782,386.438 103.497,383.497 101.530 C 378.353 98.087,373.484 96.199,367.500 95.324 C 365.055 94.967,108.784 94.892,104.478 95.247 " stroke="none" fill="#fccc2c" fill-rule="evenodd"></path><path id="path2" d="M105.511 95.157 C 105.730 95.214,106.088 95.214,106.307 95.157 C 106.526 95.099,106.347 95.053,105.909 95.053 C 105.472 95.053,105.293 95.099,105.511 95.157 M80.789 106.193 L 79.205 107.841 80.852 106.256 C 81.759 105.384,82.500 104.643,82.500 104.608 C 82.500 104.442,82.261 104.663,80.789 106.193 M112.462 303.352 C 153.253 303.384,219.935 303.384,260.644 303.352 C 301.352 303.321,267.977 303.295,186.477 303.295 C 104.977 303.295,71.670 303.321,112.462 303.352 " stroke="none" fill="#fcc41c" fill-rule="evenodd"></path><path id="path3" d="" stroke="none" fill="#fcb414" fill-rule="evenodd"></path><path id="path4" d="" stroke="none" fill="#fcac0c" fill-rule="evenodd"></path></g></svg>